<svg width="44" height="42" viewBox="0 0 44 42" fill="none" xmlns="http://www.w3.org/2000/svg">
<path d="M0 0L33.8203 12.3942C38.3545 14.0559 41.9865 17.5389 43.8365 21.9996L20.3145 17.706C17.0989 17.1191 14.0839 15.7288 11.5496 13.6645L8.12676 10.3593L5.10424 7.20388L2.38198 3.97356L1.02085 1.94069L0.400333 0.798944L0 0Z" fill="#FF0000"/>
<path d="M5.72168 17.8585L34.6576 23.1414C38.4145 23.8273 41.5385 26.4292 42.8926 30L21.4347 31.1696L17.9919 29.8329L14.1887 26.9925L8.76421 21.8128L5.72168 17.8585Z" fill="#FF0000"/>
<path d="M11.4906 33.6591L36.0846 32.159C38.5673 32.0076 40.862 33.4821 41.7558 35.8033L28.6599 39.6893C25.0945 40.7473 21.2521 40.3095 18.016 38.4767L13.4923 35.497L11.4906 33.6591Z" fill="#FF0000"/>
</svg>
